<svg width="800" height="600" xmlns="http://www.w3.org/2000/svg">

 <g>
  <title>Layer 1</title>
  <rect id="svg_1" height="49" width="112" y="52" x="114" stroke="#000" fill="#fff"/>
  <path d="m225,86c0,0 0.85274,-0.1731 2,-1c1.814,-1.30745 3.91605,-2.18938 6,-3c6.78488,-2.63921 15.93097,-4.23772 19,-5c5.90338,-1.46626 12.0271,-1.88178 21,-4c12.03842,-2.84189 38,-7 53,-7c10,0 15.97888,1.13984 42,5c27.97809,4.15047 64.01761,5.75147 94,8c36.02362,2.70158 52.89948,4.63949 70,7c19.91095,2.74845 34.93176,4.26254 46,7c8.94989,2.21354 22.06134,5.82462 28,8c5.05658,1.85227 7.18604,3.69255 9,5c1.14728,0.8269 2.9176,1.38687 4,4c0.76538,1.84776 0.38934,5.15928 -1,8c-1.58411,3.23892 -3.87628,6.17245 -8,9c-7.78058,5.33501 -13.03326,6.9361 -15,8c-12.21924,6.60988 -17,9 -24,11c-7,2 -15.88,5.48169 -23,7c-6.91559,1.47472 -13.85742,2.46765 -23,5c-8.88501,2.461 -20.09662,2.53374 -26,4c-3.06903,0.76227 -7.37201,2.3851 -11,5c-2.29453,1.65381 -3.81265,4.2068 -6,6c-2.78833,2.28587 -5.98163,4.71201 -7,10c-0.56732,2.94586 -0.50705,6.23401 2,11c1.67856,3.19099 4.82132,8.25435 9,11c6.73792,4.42723 11,6 15,8c4,2 7,3 9,4l2,0" id="svg_2" stroke="#000" fill="none"/>
  <rect id="svg_3" height="49" width="109" y="220" x="490" stroke="#000" fill="#fff"/>
  <path d="m507,270c-1,0 -1.85272,0.1731 -3,1c-1.814,1.30746 -5.21167,3.71411 -8,6c-2.18735,1.79318 -5.64117,4.55038 -10,7c-4.69461,2.63834 -9.88138,4.29349 -17,7c-5.91171,2.24762 -11.92767,4.23172 -18,6c-7.91736,2.30554 -13.97498,3.16382 -20,4c-8.96942,1.24481 -14.93796,2.49829 -21,3c-7.97275,0.65985 -15.95847,0.49924 -25,1c-10.98315,0.60831 -24,0 -31,0c-6,0 -12,0 -18,0c-7,0 -17.01376,-0.50229 -26,-1c-9.04153,-0.50076 -15.02997,-2.48874 -19,-2c-4.09222,0.50378 -6.92035,2.16797 -11,4c-4.91257,2.20605 -10,5 -13,7c-3,2 -5,4 -7,6c-2,2 -4.2068,4.81265 -6,7c-2.28587,2.78833 -5,7 -7,9l-1,2l0,2l-1,1" id="svg_4" stroke="#000" fill="none"/>
  <rect id="svg_6" height="50" width="130" y="338" x="184" stroke="#000" fill="#fff"/>
  <path d="m315,364c0,0 0.81403,-0.54895 6,-2c5.85779,-1.63904 15.03519,-2.80704 32,-6c15.03311,-2.82938 28,-3 36,-3c14,0 33,0 48,0c9,0 14.93796,1.49829 21,2c5.97955,0.49487 12.01947,0.60583 16,1c5.07422,0.50244 10.94696,3.14899 22,7c5.97244,2.08087 11,4 14,6c3,2 6.37201,3.3851 10,6c2.29456,1.65381 4.40399,2.41156 9,6c2.22937,1.74066 4.34619,3.70547 6,6c1.30743,1.814 2,4 2,6c0,2 -0.41888,3.41885 -2,5c-1.58112,1.58115 -3,4 -5,6c-2,2 -4.70544,5.34619 -7,7c-1.81396,1.30746 -3.3869,2.9176 -6,4c-1.84778,0.76538 -4.31,0.33749 -7,2c-2.40601,1.487 -4.186,3.69254 -6,5c-2.29453,1.65381 -2.77023,4.02676 -3,5c-0.51373,2.17624 -1.30746,3.186 0,5c1.65381,2.29453 4,4 6,6c2,2 3.82376,3.48627 6,4c2.91974,0.68927 5,0 9,0c5,0 9.02246,-0.63345 12,-1c4.09222,-0.50378 6,-1 8,-1c2,0 4.05353,-0.4595 6,0c2.17627,0.51373 4,2 6,4c2,2 4.34619,3.70547 6,6c1.30743,1.814 3.14429,3.93414 4,6c1.21014,2.92157 2,5 3,7c1,2 2,3 2,5c0,2 0,4 0,7c0,2 1,4 1,6c0,2 0.31073,4.08026 1,7c0.51373,2.17624 1,4 1,5l0,0" id="svg_8" stroke="#000" fill="none"/>
  <rect id="svg_9" height="59" width="144" y="484" x="489" stroke="#000" fill="#fff"/>
 </g>
</svg>